<svg width="116" height="26" viewBox="0 0 116 26" fill="none" xmlns="http://www.w3.org/2000/svg">
<path fill-rule="evenodd" clip-rule="evenodd" d="M15.0009 23.0009C18.3146 19.6872 18.3146 14.3147 15.0009 11.001C11.6872 7.68732 6.3146 7.68732 3.0009 11.001C-0.3128 14.3147 -0.3128 19.6872 3.0009 23.0009C6.3146 26.3146 11.6872 26.3146 15.0009 23.0009Z" fill="#173AFF"/>
<path fill-rule="evenodd" clip-rule="evenodd" d="M19.0009 18.9995C22.3146 15.6858 22.3146 10.3132 19.0009 6.99956C15.6872 3.68585 10.3146 3.68585 7.00087 6.99956C3.68721 10.3132 3.68721 15.6858 7.00087 18.9995C10.3146 22.3132 15.6872 22.3132 19.0009 18.9995Z" fill="#B9AC83"/>
<path fill-rule="evenodd" clip-rule="evenodd" d="M23.0009 15C26.3146 11.6863 26.3146 6.31375 23.0009 3.00005C19.6872 -0.313654 14.3146 -0.313654 11.0009 3.00005C7.6872 6.31376 7.6872 11.6863 11.0009 15C14.3146 18.3137 19.6872 18.3137 23.0009 15Z" fill="white"/>
<path d="M23.0022 3.0009C26.3159 6.3146 26.3159 11.6872 23.0022 15.0009C22.301 15.7021 21.5075 16.2549 20.661 16.6593C22.1679 13.5052 21.6152 9.613 19.0027 7.0005C16.3901 4.38795 12.4978 3.83514 9.34375 5.34202C9.74815 4.49547 10.3011 3.70209 11.0022 3.0009C14.3159 -0.3128 19.6885 -0.3128 23.0022 3.0009Z" fill="#E5EBFF"/>
<mask id="mask0_827_801" style="mask-type:luminance" maskUnits="userSpaceOnUse" x="37" y="7" width="79" height="12">
<path d="M115.65 7.5H37V18.5H115.65V7.5Z" fill="white"/>
</mask>
<g mask="url(#mask0_827_801)">
<path d="M38.6809 7.5H37V18.5H44.4315V16.8145H38.6809V7.5Z" fill="black"/>
<path d="M51.3328 7.5C48.3071 7.5 45.8477 9.9661 45.8477 13C45.8477 16.0339 48.3071 18.5 51.3328 18.5C54.3585 18.5 56.818 16.0339 56.818 13C56.818 9.9661 54.3585 7.5 51.3328 7.5ZM51.3328 16.8677C49.2095 16.8677 47.4755 15.129 47.4755 13C47.4755 10.871 49.2095 9.1323 51.3328 9.1323C53.4561 9.1323 55.1901 10.871 55.1901 13C55.1901 15.129 53.4561 16.8677 51.3328 16.8677Z" fill="black"/>
<path d="M62.4447 7.5L57.4727 18.4823H59.3128L60.2683 16.3532H66.2135L67.2221 18.4823H69.0799L63.8779 7.5H62.4624H62.4447ZM65.4173 14.6677H61.0292L63.1701 9.9484L65.4173 14.6677Z" fill="black"/>
<path d="M79.021 15.8032L72.8634 7.571L72.8104 7.5H71.0586V18.5H72.7396V10.2145L78.8971 18.429L78.9502 18.5H80.7019V7.5H79.021V15.8032Z" fill="black"/>
<path d="M83.4492 18.5H85.1301V13.8516H90.6506V12.1661H85.1301V9.1855H91.7654V7.5H83.4492V18.5Z" fill="black"/>
<path d="M110.431 7.5H109.015L104.043 18.5H105.883L106.839 16.371H112.784L113.739 18.3935L113.792 18.5H115.65L110.431 7.5ZM111.988 14.6855H107.599L109.74 9.9661L111.988 14.6855Z" fill="black"/>
<path d="M102.595 11.0129C102.595 9.079 100.861 7.5 98.7199 7.5H93.8359V18.5H95.5168V14.5081H97.9759L101.091 18.5H103.232L99.9759 14.3129C101.533 13.8339 102.612 12.5032 102.612 11.0129H102.595ZM100.914 11.0129C100.914 12.0242 99.9229 12.8226 98.7199 12.8226H95.5168V9.1855H98.7199C99.9229 9.1855 100.914 10.0016 100.914 10.9952V11.0129Z" fill="black"/>
</g>
</svg>
