<svg width="228" height="280" viewBox="0 0 228 280" fill="none" xmlns="http://www.w3.org/2000/svg">
<path d="M158.6 106.179C322.643 89.2045 148.633 325.237 111.139 169.121C116.994 293.766 -112.381 120.676 71.5912 106.179C-88.6518 118.806 93.2654 -83.8856 116.994 57.7344C111.139 -83.8856 338.462 75.7913 158.6 106.179Z" fill="url(#paint0_linear_827_782)"/>
<path d="M114.179 149.254C109.283 149.184 105.086 145.149 105.226 140.21C105.086 135.34 109.283 131.305 114.179 131.305C119.145 131.305 123.202 135.34 123.132 140.21C123.202 145.149 119.145 149.184 114.179 149.254ZM105.226 84.2776C105.086 79.4078 109.283 75.3729 114.179 75.3729C119.145 75.3729 123.202 79.4078 123.132 84.2776C123.202 89.2168 119.145 93.2517 114.179 93.3213C109.283 93.2517 105.086 89.2168 105.226 84.2776Z" fill="black"/>
<path d="M214.519 246.732C218.649 246.732 221.918 247.86 224.327 250.116C226.774 252.333 227.998 255.373 227.998 259.235C227.998 260.497 227.902 261.625 227.711 262.619C227.558 263.499 227.329 264.436 227.023 265.43H204.826C204.788 265.659 204.769 266.023 204.769 266.52C204.769 268.202 205.228 269.483 206.145 270.363C207.063 271.242 208.287 271.682 209.816 271.682C212.263 271.682 214.137 270.649 215.437 268.584H225.876C224.499 271.835 222.262 274.492 219.165 276.557C216.068 278.622 212.588 279.654 208.726 279.654C204.597 279.654 201.289 278.507 198.804 276.213C196.356 273.919 195.133 270.802 195.133 266.864C195.133 265.678 195.248 264.455 195.477 263.193C196.051 259.866 197.236 256.96 199.033 254.475C200.83 251.989 203.067 250.077 205.744 248.739C208.42 247.401 211.346 246.732 214.519 246.732ZM218.075 260.44C218.152 259.905 218.19 259.541 218.19 259.35C218.19 257.821 217.712 256.654 216.756 255.851C215.8 255.01 214.538 254.59 212.971 254.59C211.288 254.59 209.797 255.106 208.497 256.138C207.235 257.132 206.317 258.566 205.744 260.44H218.075Z" fill="url(#paint1_linear_827_782)"/>
<path d="M185.007 246.846C188.448 246.846 191.125 247.764 193.037 249.6C194.987 251.397 195.962 253.92 195.962 257.171C195.962 258.165 195.847 259.274 195.618 260.497L192.291 279.196H182.541L185.638 261.817C185.714 261.434 185.753 260.918 185.753 260.268C185.753 258.662 185.294 257.438 184.376 256.597C183.497 255.756 182.254 255.335 180.648 255.335C178.736 255.335 177.13 255.909 175.83 257.056C174.53 258.165 173.708 259.752 173.364 261.817L170.266 279.196H160.516L163.613 261.817C163.69 261.434 163.728 260.918 163.728 260.268C163.728 258.662 163.269 257.438 162.351 256.597C161.472 255.756 160.229 255.335 158.623 255.335C156.711 255.335 155.105 255.909 153.805 257.056C152.505 258.165 151.683 259.752 151.339 261.817V261.53L148.242 279.196H138.434L144.055 247.191H153.862L153.174 251.263C154.398 249.886 155.87 248.816 157.591 248.051C159.35 247.248 161.242 246.846 163.269 246.846C165.716 246.846 167.781 247.363 169.463 248.395C171.184 249.428 172.408 250.919 173.134 252.869C174.549 251.072 176.308 249.619 178.411 248.51C180.514 247.401 182.713 246.846 185.007 246.846Z" fill="url(#paint2_linear_827_782)"/>
<path d="M137.29 243.864C135.76 243.864 134.537 243.462 133.619 242.659C132.74 241.818 132.3 240.767 132.3 239.505C132.3 237.784 132.969 236.312 134.307 235.088C135.646 233.865 137.271 233.253 139.183 233.253C140.712 233.253 141.917 233.674 142.796 234.515C143.676 235.318 144.115 236.369 144.115 237.669C144.115 239.352 143.446 240.805 142.108 242.028C140.77 243.252 139.164 243.864 137.29 243.864ZM141.534 247.191L135.913 279.195H126.105L131.726 247.191H141.534Z" fill="url(#paint3_linear_827_782)"/>
<path d="M120.699 268.183C120.661 268.374 120.642 268.623 120.642 268.929C120.642 269.617 120.833 270.114 121.215 270.42C121.636 270.726 122.305 270.879 123.223 270.879H126.722L125.23 279.196H120.24C113.816 279.196 110.604 276.5 110.604 271.108C110.604 270.305 110.7 269.292 110.891 268.068L113.185 255.335H109.285L110.719 247.191H114.619L115.996 239.39H125.804L124.427 247.191H130.851L129.417 255.335H122.993L120.699 268.183Z" fill="url(#paint4_linear_827_782)"/>
<path d="M97.6345 263.25L108.245 279.196H96.0859L88.6869 265.832L86.3353 279.196H76.5273L84.041 236.752H93.849L89.7193 260.153L101.649 247.191H113.752L97.6345 263.25Z" fill="url(#paint5_linear_827_782)"/>
<path d="M47.3051 263.193C47.8786 259.866 49.064 256.96 50.8612 254.475C52.6583 251.989 54.8761 250.077 57.5145 248.739C60.1912 247.401 63.0972 246.732 66.2327 246.732C70.2476 246.732 73.4214 247.783 75.7539 249.886C78.0864 251.989 79.3291 254.953 79.482 258.777H69.0432C68.6225 256.329 67.1313 255.106 64.5694 255.106C62.7722 255.106 61.2236 255.813 59.9235 257.228C58.6234 258.604 57.7439 260.593 57.2851 263.193C57.1321 263.996 57.0557 264.837 57.0557 265.717C57.0557 267.514 57.4763 268.89 58.3175 269.846C59.1587 270.802 60.3059 271.28 61.7589 271.28C64.2826 271.28 66.1753 270.057 67.4372 267.609H77.9334C76.4421 271.357 74.1479 274.301 71.0506 276.442C67.9534 278.584 64.4164 279.654 60.4397 279.654C56.31 279.654 53.0216 278.526 50.5744 276.27C48.1654 273.976 46.9609 270.86 46.9609 266.921C46.9609 265.736 47.0756 264.493 47.3051 263.193Z" fill="url(#paint6_linear_827_782)"/>
<path d="M49.5517 247.19L43.9308 279.195H34.1229L34.8685 274.836C33.6066 276.251 32.058 277.398 30.2226 278.278C28.4255 279.119 26.4945 279.539 24.4296 279.539C21.2177 279.539 18.694 278.641 16.8586 276.844C15.0232 275.008 14.1055 272.465 14.1055 269.215C14.1055 267.992 14.2011 266.883 14.3923 265.889L17.7189 247.19H27.4695L24.4296 264.569C24.3149 265.181 24.2576 265.774 24.2576 266.347C24.2576 267.953 24.6973 269.196 25.5767 270.076C26.4945 270.917 27.7563 271.337 29.3623 271.337C31.1977 271.337 32.7463 270.802 34.0081 269.731C35.3082 268.623 36.1686 267.055 36.5892 265.028L39.7438 247.19H49.5517Z" fill="url(#paint7_linear_827_782)"/>
<path d="M17.3216 236.752L9.80795 279.196H0L7.51369 236.752H17.3216Z" fill="url(#paint8_linear_827_782)"/>
<defs>
<linearGradient id="paint0_linear_827_782" x1="91.5014" y1="-859.381" x2="87.8418" y2="882.97" gradientUnits="userSpaceOnUse">
<stop offset="0.4" stop-color="white"/>
<stop offset="0.55" stop-color="#01C915"/>
<stop offset="1"/>
</linearGradient>
<linearGradient id="paint1_linear_827_782" x1="-0.633106" y1="235.605" x2="212.6" y2="334.754" gradientUnits="userSpaceOnUse">
<stop offset="0.4" stop-color="#01C915"/>
<stop offset="1"/>
</linearGradient>
<linearGradient id="paint2_linear_827_782" x1="-0.630171" y1="235.605" x2="212.603" y2="334.754" gradientUnits="userSpaceOnUse">
<stop offset="0.4" stop-color="#01C915"/>
<stop offset="1"/>
</linearGradient>
<linearGradient id="paint3_linear_827_782" x1="-0.631141" y1="235.605" x2="212.602" y2="334.754" gradientUnits="userSpaceOnUse">
<stop offset="0.4" stop-color="#01C915"/>
<stop offset="1"/>
</linearGradient>
<linearGradient id="paint4_linear_827_782" x1="-0.631668" y1="235.605" x2="212.601" y2="334.754" gradientUnits="userSpaceOnUse">
<stop offset="0.4" stop-color="#01C915"/>
<stop offset="1"/>
</linearGradient>
<linearGradient id="paint5_linear_827_782" x1="-0.629577" y1="235.605" x2="212.604" y2="334.754" gradientUnits="userSpaceOnUse">
<stop offset="0.4" stop-color="#01C915"/>
<stop offset="1"/>
</linearGradient>
<linearGradient id="paint6_linear_827_782" x1="-0.630551" y1="235.605" x2="212.603" y2="334.754" gradientUnits="userSpaceOnUse">
<stop offset="0.4" stop-color="#01C915"/>
<stop offset="1"/>
</linearGradient>
<linearGradient id="paint7_linear_827_782" x1="-0.63065" y1="235.604" x2="212.603" y2="334.754" gradientUnits="userSpaceOnUse">
<stop offset="0.4" stop-color="#01C915"/>
<stop offset="1"/>
</linearGradient>
<linearGradient id="paint8_linear_827_782" x1="-0.630925" y1="235.605" x2="212.602" y2="334.754" gradientUnits="userSpaceOnUse">
<stop offset="0.4" stop-color="#01C915"/>
<stop offset="1"/>
</linearGradient>
</defs>
</svg>
