<?xml version="1.0" encoding="UTF-8"?>
<svg id="_레이어_1" data-name="레이어 1" xmlns="http://www.w3.org/2000/svg" xmlns:xlink="http://www.w3.org/1999/xlink" viewBox="0 0 1684 126">
  <defs>
    <style>
      .cls-1 {
        fill: url(#_무제_그라디언트);
      }
    </style>
    <linearGradient id="_무제_그라디언트" data-name="무제 그라디언트" x1="91.38" y1="-245.31" x2="1695.93" y2="394.55" gradientTransform="translate(0 127.4) scale(1 -1)" gradientUnits="userSpaceOnUse">
      <stop offset="0" stop-color="#fff"/>
      <stop offset="1" stop-color="#ff8e00" stop-opacity=".9"/>
    </linearGradient>
  </defs>
  <path class="cls-1" d="M85.75,117.52l-7.3-20.22h-40.45l-7.3,20.22H6.64L47.09,13.2h24.19l40.45,104.32h-25.98ZM45.17,77.07h26.11l-13.06-36.35-13.06,36.35ZM185.26,90.51c-3.84,17.41-18.43,28.8-37.38,28.8-23.17,0-39.81-16.51-39.81-39.3s16.64-39.3,39.81-39.3c19.58,0,34.3,12.54,36.99,28.54h-23.04c-1.79-5.12-6.78-8.7-13.95-8.7-10.62,0-17.54,8.19-17.54,19.46s6.91,19.46,17.54,19.46c7.04,0,12.29-3.58,14.34-8.96h23.04ZM264.48,90.51c-3.84,17.41-18.43,28.8-37.38,28.8-23.17,0-39.81-16.51-39.81-39.3s16.64-39.3,39.81-39.3c19.58,0,34.3,12.54,36.99,28.54h-23.04c-1.79-5.12-6.78-8.7-13.95-8.7-10.62,0-17.54,8.19-17.54,19.46s6.91,19.46,17.54,19.46c7.04,0,12.29-3.58,14.34-8.96h23.04ZM305.56,119.31c-22.91,0-39.04-16.38-39.04-39.3s16.13-39.3,39.04-39.3,39.04,16.38,39.04,39.3c0,2.18-.13,4.61-.51,7.3h-54.91c1.79,8.7,7.81,13.7,16.38,13.7,6.53,0,11.9-2.3,13.82-5.89h22.91c-3.84,14.34-18.56,24.19-36.74,24.19ZM289.05,72.59h33.28c-1.92-8.96-7.81-13.82-16.77-13.82s-14.59,4.86-16.51,13.82ZM374.37,10v107.52h-22.78V10h22.78ZM420.26,119.31c-22.91,0-39.04-16.38-39.04-39.3s16.13-39.3,39.04-39.3,39.04,16.38,39.04,39.3c0,2.18-.13,4.61-.51,7.3h-54.91c1.79,8.7,7.81,13.7,16.38,13.7,6.53,0,11.9-2.3,13.82-5.89h22.91c-3.84,14.34-18.56,24.19-36.74,24.19ZM403.75,72.59h33.28c-1.92-8.96-7.81-13.82-16.77-13.82s-14.59,4.86-16.51,13.82ZM466.29,117.52V42.51h22.78v7.68c4.48-6.02,11.39-9.47,20.99-9.47,4.22,0,6.91.26,9.86,1.28l.26,21.38c-3.2-1.66-7.17-2.56-11.65-2.56-12.16,0-19.46,6.91-19.46,18.3v38.4h-22.78ZM554.53,119.31c-21.5,0-36.48-16.51-36.48-39.3s14.98-39.3,36.48-39.3c9.86,0,17.02,3.46,21.5,9.47v-7.68h22.78v75.01h-22.78v-7.68c-4.48,6.02-11.65,9.47-21.5,9.47ZM558.11,99.86c11.14,0,18.3-8.32,18.3-19.84s-7.17-19.84-18.3-19.84-17.79,8.32-17.79,19.84,6.91,19.84,17.79,19.84ZM655.57,42.51v19.58h-14.85v55.42h-22.78v-55.42h-14.85v-19.58h14.85v-22.27h22.78v22.27h14.85ZM693.41,119.31c-22.91,0-39.04-16.38-39.04-39.3s16.13-39.3,39.04-39.3,39.04,16.38,39.04,39.3c0,2.18-.13,4.61-.51,7.3h-54.91c1.79,8.7,7.81,13.7,16.38,13.7,6.53,0,11.9-2.3,13.82-5.89h22.91c-3.84,14.34-18.56,24.19-36.74,24.19ZM676.9,72.59h33.28c-1.92-8.96-7.81-13.82-16.77-13.82s-14.59,4.86-16.51,13.82ZM863.38,13.2l-39.04,71.55v32.77h-23.3v-32.77l-39.04-71.55h26.62l25.09,49.28,24.96-49.28h24.7ZM885.11,40.72c23.17,0,39.81,16.51,39.81,39.3s-16.64,39.3-39.81,39.3-39.81-16.51-39.81-39.3,16.64-39.3,39.81-39.3ZM885.11,60.18c-10.75,0-17.79,8.32-17.79,19.84s7.04,19.84,17.79,19.84,17.79-8.32,17.79-19.84-7.04-19.84-17.79-19.84ZM960.02,119.31c-17.41,0-29.31-12.67-29.31-33.41v-43.39h22.78v39.55c0,11.39,4.61,17.66,13.18,17.66s14.34-7.04,14.34-18.69v-38.53h22.78v75.01h-22.78v-7.68c-4.48,6.02-11.39,9.47-20.99,9.47ZM1014.59,117.52V42.51h22.78v7.68c4.48-6.02,11.39-9.47,20.99-9.47,4.23,0,6.92.26,9.86,1.28l.26,21.38c-3.2-1.66-7.17-2.56-11.65-2.56-12.16,0-19.46,6.91-19.46,18.3v38.4h-22.78ZM1103.05,117.52V13.2h40.07c27.13,0,43.01,15.1,43.01,38.14s-15.88,38.4-43.01,38.4h-16.77v27.78h-23.3ZM1126.35,69.14h15.74c12.93,0,20.74-6.14,20.74-17.79s-7.81-17.54-20.74-17.54h-15.74v35.33ZM1226.98,40.72c23.17,0,39.81,16.51,39.81,39.3s-16.64,39.3-39.81,39.3-39.81-16.51-39.81-39.3,16.64-39.3,39.81-39.3ZM1226.98,60.18c-10.75,0-17.79,8.32-17.79,19.84s7.04,19.84,17.79,19.84,17.79-8.32,17.79-19.84-7.04-19.84-17.79-19.84ZM1318.07,42.51v19.58h-14.85v55.42h-22.79v-55.42h-14.84v-19.58h14.84v-22.27h22.79v22.27h14.85ZM1355.91,119.31c-22.91,0-39.04-16.38-39.04-39.3s16.13-39.3,39.04-39.3,39.04,16.38,39.04,39.3c0,2.18-.12,4.61-.51,7.3h-54.91c1.79,8.7,7.81,13.7,16.38,13.7,6.53,0,11.91-2.3,13.83-5.89h22.91c-3.84,14.34-18.56,24.19-36.74,24.19ZM1339.4,72.59h33.28c-1.92-8.96-7.81-13.82-16.77-13.82s-14.59,4.86-16.51,13.82ZM1401.94,117.52V42.51h22.78v7.68c4.48-6.02,11.39-9.47,20.99-9.47,17.41,0,29.32,12.67,29.32,33.41v43.39h-22.79v-39.55c0-11.39-4.61-17.66-13.18-17.66s-14.34,7.04-14.34,18.69v38.53h-22.78ZM1528.87,42.51v19.58h-14.85v55.42h-22.79v-55.42h-14.84v-19.58h14.84v-22.27h22.79v22.27h14.85ZM1544.53,6.29c8.06,0,13.95,5.89,13.95,13.95s-5.89,13.95-13.95,13.95-13.95-5.89-13.95-13.95,5.89-13.95,13.95-13.95ZM1555.92,42.51v75.26h-22.78V42.51h22.78ZM1599.25,119.31c-21.5,0-36.48-16.51-36.48-39.3s14.98-39.3,36.48-39.3c9.86,0,17.03,3.46,21.51,9.47v-7.68h22.78v75.01h-22.78v-7.68c-4.48,6.02-11.65,9.47-21.51,9.47ZM1602.84,99.86c11.13,0,18.3-8.32,18.3-19.84s-7.17-19.84-18.3-19.84-17.79,8.32-17.79,19.84,6.91,19.84,17.79,19.84ZM1677.12,10v107.52h-22.78V10h22.78Z" shape-rendering="crispEdges"/>
</svg>