<svg width="1449" height="110" viewBox="0 0 1449 110" fill="none" xmlns="http://www.w3.org/2000/svg">
<g filter="url(#filter0_d_774_1101)">
<path d="M75.0868 101.9L68.8168 84.52H34.0568L27.7868 101.9H7.10684L41.8668 12.25H62.6568L97.4168 101.9H75.0868ZM40.2168 67.14H62.6568L51.4368 35.9L40.2168 67.14ZM160.604 78.69C157.304 93.65 144.764 103.44 128.484 103.44C108.574 103.44 94.2741 89.25 94.2741 69.67C94.2741 50.09 108.574 35.9 128.484 35.9C145.314 35.9 157.964 46.68 160.274 60.43H140.474C138.934 56.03 134.644 52.95 128.484 52.95C119.354 52.95 113.414 59.99 113.414 69.67C113.414 79.35 119.354 86.39 128.484 86.39C134.534 86.39 139.044 83.31 140.804 78.69H160.604ZM228.688 78.69C225.388 93.65 212.848 103.44 196.568 103.44C176.658 103.44 162.358 89.25 162.358 69.67C162.358 50.09 176.658 35.9 196.568 35.9C213.398 35.9 226.048 46.68 228.358 60.43H208.558C207.018 56.03 202.728 52.95 196.568 52.95C187.438 52.95 181.498 59.99 181.498 69.67C181.498 79.35 187.438 86.39 196.568 86.39C202.618 86.39 207.128 83.31 208.888 78.69H228.688ZM263.992 103.44C244.302 103.44 230.442 89.36 230.442 69.67C230.442 50.09 244.302 35.9 263.992 35.9C283.682 35.9 297.542 49.98 297.542 69.67C297.542 71.54 297.432 73.63 297.102 75.94H249.912C251.452 83.42 256.622 87.71 263.992 87.71C269.602 87.71 274.222 85.73 275.872 82.65H295.562C292.262 94.97 279.612 103.44 263.992 103.44ZM249.802 63.29H278.402C276.752 55.59 271.692 51.41 263.992 51.41C256.292 51.41 251.452 55.59 249.802 63.29ZM323.125 9.49999V101.9H303.545V9.49999H323.125ZM362.562 103.44C342.872 103.44 329.012 89.36 329.012 69.67C329.012 50.09 342.872 35.9 362.562 35.9C382.252 35.9 396.112 49.98 396.112 69.67C396.112 71.54 396.002 73.63 395.672 75.94H348.482C350.022 83.42 355.192 87.71 362.562 87.71C368.172 87.71 372.792 85.73 374.442 82.65H394.132C390.832 94.97 378.182 103.44 362.562 103.44ZM348.372 63.29H376.972C375.322 55.59 370.262 51.41 362.562 51.41C354.862 51.41 350.022 55.59 348.372 63.29ZM402.115 101.9V37.44H421.695V44.04C425.545 38.87 431.485 35.9 439.735 35.9C443.365 35.9 445.675 36.12 448.205 37L448.425 55.37C445.675 53.94 442.265 53.17 438.415 53.17C427.965 53.17 421.695 59.11 421.695 68.9V101.9H402.115ZM477.946 103.44C459.466 103.44 446.596 89.25 446.596 69.67C446.596 50.09 459.466 35.9 477.946 35.9C486.416 35.9 492.576 38.87 496.426 44.04V37.44H516.006V101.9H496.426V95.3C492.576 100.47 486.416 103.44 477.946 103.44ZM481.026 86.72C490.596 86.72 496.756 79.57 496.756 69.67C496.756 59.77 490.596 52.62 481.026 52.62C471.676 52.62 465.736 59.77 465.736 69.67C465.736 79.57 471.676 86.72 481.026 86.72ZM564.775 37.44V54.27H552.015V101.9H532.435V54.27H519.675V37.44H532.435V18.3H552.015V37.44H564.775ZM597.301 103.44C577.611 103.44 563.751 89.36 563.751 69.67C563.751 50.09 577.611 35.9 597.301 35.9C616.991 35.9 630.851 49.98 630.851 69.67C630.851 71.54 630.741 73.63 630.411 75.94H583.221C584.761 83.42 589.931 87.71 597.301 87.71C602.911 87.71 607.531 85.73 609.181 82.65H628.871C625.571 94.97 612.921 103.44 597.301 103.44ZM583.111 63.29H611.711C610.061 55.59 605.001 51.41 597.301 51.41C589.601 51.41 584.761 55.59 583.111 63.29ZM743.363 12.25L709.813 73.74V101.9H689.793V73.74L656.243 12.25H679.123L700.683 54.6L722.133 12.25H743.363ZM762.037 35.9C781.947 35.9 796.247 50.09 796.247 69.67C796.247 89.25 781.947 103.44 762.037 103.44C742.127 103.44 727.827 89.25 727.827 69.67C727.827 50.09 742.127 35.9 762.037 35.9ZM762.037 52.62C752.797 52.62 746.747 59.77 746.747 69.67C746.747 79.57 752.797 86.72 762.037 86.72C771.277 86.72 777.327 79.57 777.327 69.67C777.327 59.77 771.277 52.62 762.037 52.62ZM826.419 103.44C811.459 103.44 801.229 92.55 801.229 74.73V37.44H820.809V71.43C820.809 81.22 824.769 86.61 832.139 86.61C839.839 86.61 844.459 80.56 844.459 70.55V37.44H864.039V101.9H844.459V95.3C840.609 100.47 834.669 103.44 826.419 103.44ZM873.31 101.9V37.44H892.89V44.04C896.74 38.87 902.68 35.9 910.93 35.9C914.56 35.9 916.87 36.12 919.4 37L919.62 55.37C916.87 53.94 913.46 53.17 909.61 53.17C899.16 53.17 892.89 59.11 892.89 68.9V101.9H873.31ZM949.335 101.9V12.25H983.765C1007.09 12.25 1020.73 25.23 1020.73 45.03C1020.73 65.05 1007.09 78.03 983.765 78.03H969.355V101.9H949.335ZM969.355 60.32H982.885C993.995 60.32 1000.71 55.04 1000.71 45.03C1000.71 35.13 993.995 29.96 982.885 29.96H969.355V60.32ZM1055.84 35.9C1075.75 35.9 1090.05 50.09 1090.05 69.67C1090.05 89.25 1075.75 103.44 1055.84 103.44C1035.93 103.44 1021.63 89.25 1021.63 69.67C1021.63 50.09 1035.93 35.9 1055.84 35.9ZM1055.84 52.62C1046.6 52.62 1040.55 59.77 1040.55 69.67C1040.55 79.57 1046.6 86.72 1055.84 86.72C1065.08 86.72 1071.13 79.57 1071.13 69.67C1071.13 59.77 1065.08 52.62 1055.84 52.62ZM1134.11 37.44V54.27H1121.35V101.9H1101.77V54.27H1089.01V37.44H1101.77V18.3H1121.35V37.44H1134.11ZM1166.64 103.44C1146.95 103.44 1133.09 89.36 1133.09 69.67C1133.09 50.09 1146.95 35.9 1166.64 35.9C1186.33 35.9 1200.19 49.98 1200.19 69.67C1200.19 71.54 1200.08 73.63 1199.75 75.94H1152.56C1154.1 83.42 1159.27 87.71 1166.64 87.71C1172.25 87.71 1176.87 85.73 1178.52 82.65H1198.21C1194.91 94.97 1182.26 103.44 1166.64 103.44ZM1152.45 63.29H1181.05C1179.4 55.59 1174.34 51.41 1166.64 51.41C1158.94 51.41 1154.1 55.59 1152.45 63.29ZM1206.19 101.9V37.44H1225.77V44.04C1229.62 38.87 1235.56 35.9 1243.81 35.9C1258.77 35.9 1269 46.79 1269 64.61V101.9H1249.42V67.91C1249.42 58.12 1245.46 52.73 1238.09 52.73C1230.39 52.73 1225.77 58.78 1225.77 68.79V101.9H1206.19ZM1315.27 37.44V54.27H1302.51V101.9H1282.93V54.27H1270.17V37.44H1282.93V18.3H1302.51V37.44H1315.27ZM1328.73 6.31C1335.66 6.31 1340.72 11.37 1340.72 18.3C1340.72 25.23 1335.66 30.29 1328.73 30.29C1321.8 30.29 1316.74 25.23 1316.74 18.3C1316.74 11.37 1321.8 6.31 1328.73 6.31ZM1338.52 37.44V102.12H1318.94V37.44H1338.52ZM1375.76 103.44C1357.28 103.44 1344.41 89.25 1344.41 69.67C1344.41 50.09 1357.28 35.9 1375.76 35.9C1384.23 35.9 1390.39 38.87 1394.24 44.04V37.44H1413.82V101.9H1394.24V95.3C1390.39 100.47 1384.23 103.44 1375.76 103.44ZM1378.84 86.72C1388.41 86.72 1394.57 79.57 1394.57 69.67C1394.57 59.77 1388.41 52.62 1378.84 52.62C1369.49 52.62 1363.55 59.77 1363.55 69.67C1363.55 79.57 1369.49 86.72 1378.84 86.72ZM1442.68 9.49999V101.9H1423.1V9.49999H1442.68Z" fill="url(#paint0_linear_774_1101)" shape-rendering="crispEdges"/>
</g>
<defs>
<filter id="filter0_d_774_1101" x="0.905469" y="0.110059" width="1447.97" height="109.53" filterUnits="userSpaceOnUse" color-interpolation-filters="sRGB">
<feFlood flood-opacity="0" result="BackgroundImageFix"/>
<feColorMatrix in="SourceAlpha" type="matrix" values="0 0 0 0 0 0 0 0 0 0 0 0 0 0 0 0 0 0 127 0" result="hardAlpha"/>
<feOffset/>
<feGaussianBlur stdDeviation="3.1"/>
<feComposite in2="hardAlpha" operator="out"/>
<feColorMatrix type="matrix" values="0 0 0 0 0 0 0 0 0 0 0 0 0 0 0 0 0 0 1 0"/>
<feBlend mode="normal" in2="BackgroundImageFix" result="effect1_dropShadow_774_1101"/>
<feBlend mode="normal" in="SourceGraphic" in2="effect1_dropShadow_774_1101" result="shape"/>
</filter>
<linearGradient id="paint0_linear_774_1101" x1="-13.2167" y1="91" x2="1416.53" y2="-398.769" gradientUnits="userSpaceOnUse">
<stop stop-color="white"/>
<stop offset="1" stop-color="#FF8E00" stop-opacity="0.9"/>
</linearGradient>
</defs>
</svg>
