<svg width="144" height="16" viewBox="0 0 144 16" fill="none" xmlns="http://www.w3.org/2000/svg">
<g clip-path="url(#clip0_58_1089)">
<g clip-path="url(#clip1_58_1089)">
<path d="M62.0867 8.34889C59.8156 8.34889 57.9756 10.0622 57.9756 12.1756C57.9756 14.2889 59.8156 16.0022 62.0867 16.0022C64.3578 16.0022 66.1978 14.2889 66.1978 12.1756C66.1978 10.0622 64.3578 8.34889 62.0867 8.34889ZM62.0867 14.2222C60.8 14.2222 59.7533 13.3044 59.7533 12.1733C59.7533 11.0422 60.8 10.1244 62.0867 10.1244C63.3733 10.1244 64.42 11.0422 64.42 12.1733C64.42 13.3044 63.3733 14.2222 62.0867 14.2222ZM47.1756 9.73556L51.5689 13.6911L50.3933 14.9978L45.8622 10.9178L41.3311 14.9978L40.1556 13.6911L44.5489 9.73556L45.8622 8.55333L47.1756 9.73556ZM47.1778 4.12444V2.68444V2.59333H49.4156V0H51.1733V2.59333V4.35111V8.39556H49.4156V4.35111H47.1778V4.12444ZM65.5667 0H67.3244V7.73778H65.5667V4.48222H63.9356V7.73778H62.1778V0H63.9356V2.72444H65.5667V0ZM142.242 4.60444H140.349V2.84667H142.242V0H144V8.48445H142.242V4.60444ZM22.7067 0H32L22.7067 5.81556V0ZM46.3133 0.268889H39.1111V7.47111H46.3133V0.268889ZM44.6244 5.66889H40.7978V2.06889H44.6244V5.66889ZM11.1689 12.2489H22.7089V16H9.29333V5.81556L0 0H11.1689V12.2489ZM59.6644 7.81556L57.3022 4.03333L54.94 7.81333L53.4489 6.88222L56.2645 2.37556L56.6822 1.70667H53.7044V0.268889H60.8978V1.70667H57.92L58.3378 2.37556L61.1556 6.88444L59.6644 7.81556ZM127.649 0H129.407V14.9978H127.649V6.87556H125.091V5.12H127.649V0ZM122.02 4.07778L125.769 10.0756L124.278 11.0067L120.984 5.73556L117.691 11.0067L116.2 10.0756L119.947 4.07778L120.313 3.49111H116.584V1.73333H120.102V0H121.86V1.73111H125.378V3.48889H121.649L122 4.04889L122.024 4.06445L122.018 4.07556L122.02 4.07778ZM112.66 5.58667H114.898V7.34444H112.66V15.0711H110.902V0H112.66V5.58667ZM73.5467 1.42C71.1844 1.42 69.2711 3.33556 69.2711 5.69556C69.2711 8.05556 71.1867 9.97111 73.5467 9.97111C75.9067 9.97111 77.8222 8.05778 77.8222 5.69556C77.8222 3.33333 75.9089 1.42 73.5467 1.42ZM73.5467 8.17111C72.1822 8.17111 71.0711 7.06 71.0711 5.69556C71.0711 4.33111 72.1822 3.22 73.5467 3.22C74.9111 3.22 76.0222 4.33111 76.0222 5.69556C76.0222 7.06 74.9111 8.17111 73.5467 8.17111ZM142.311 9.15333H133.609V14.9978H143.998V9.15333H142.309H142.311ZM142.311 13.1978H135.298V10.9533H142.311V13.1978ZM140.296 8.02222H131.94V3.10889H137.456V1.98222H131.984V0.268889H139.258V4.60889H139.253V4.73333L133.56 4.76667V6.26444H140.291V8.02222H140.296ZM106.202 3.45333L110.18 9.82L108.689 10.7511L105.164 5.11333L101.642 10.7533L100.151 9.82222L104.129 3.45556L104.653 2.61333H100.767V0.853333H109.562V2.61111H105.676L106.184 3.42667L106.209 3.44222L106.202 3.45333ZM80.1645 0H81.9222V15.0711H80.1645V0ZM96.5711 5.58667H98.8089V7.34444H96.5711V15.0711H94.8133V0H96.5711V5.58667ZM89.7867 3.27333L93.8756 9.81778L92.3845 10.7489L88.86 5.11111L85.3378 10.7489L83.8467 9.81778L87.9356 3.27333V0.771111H89.7845V3.27556L89.7867 3.27333Z" fill="#FF7710"/>
</g>
</g>
<defs>
<clipPath id="clip0_58_1089">
<rect width="144" height="16" fill="white"/>
</clipPath>
<clipPath id="clip1_58_1089">
<rect width="144" height="16" fill="white"/>
</clipPath>
</defs>
</svg>
