<?xml version="1.0" encoding="UTF-8"?>
<svg id="_레이어_2" data-name="레이어 2" xmlns="http://www.w3.org/2000/svg" viewBox="0 0 421.09 127.42">
  <defs>
    <style>
      .cls-1 {
        fill: #173aff;
      }
    </style>
  </defs>
  <g id="Layer_1" data-name="Layer 1">
    <g>
      <path class="cls-1" d="M421.09,33.42c0,18.46-14.96,33.42-33.42,33.42s-33.42-14.96-33.42-33.42S369.21,0,387.67,0s33.42,14.96,33.42,33.42Z"/>
      <g>
        <rect x="47.41" y="53.47" width="10.87" height="58.52"/>
        <path d="M96.4,95.13c-5.67,7.56-9.53,9.29-11.89,9.29-2.6,0-3.47-1.89-3.47-6.85v-25.91h-11.1v29.69c0,7.56,3.86,11.34,11.58,11.34,4.65,0,10.08-1.5,14.88-8.27v7.56h11.03v-40.32h-11.03v23.47Z"/>
        <path d="M21.58,70.56c-4.02,0-7.48.71-10.71,2.13v-19.22H0v57.41c4.49,1.42,9.53,2.28,14.65,2.28,15.44,0,25.12-8.9,25.12-23.23,0-11.81-7.09-19.37-18.19-19.37ZM16.07,105.45c-1.65,0-2.76-.24-5.2-1.1v-24.02c2.68-1.26,4.49-1.81,6.69-1.81,6.54,0,10.63,4.73,10.63,11.97,0,8.51-5.36,14.96-12.13,14.96Z"/>
        <path d="M229.26,70.56c-13.07,0-21.58,9.29-21.58,21.26s8.35,21.26,21.42,21.26,21.5-9.29,21.5-21.26-8.35-21.26-21.34-21.26ZM229.34,104.9c-6.3,0-10.24-5.75-10.24-13.07s3.78-13.07,10-13.07,10.08,5.75,10.08,13.07-3.7,13.07-9.84,13.07Z"/>
        <path d="M307.94,70.96c-4.65,0-10.08,1.5-14.89,8.27v-7.56h-11.03v40.32h11.03v-23.47c5.67-7.56,9.53-9.29,11.89-9.29,2.6,0,3.46,1.89,3.46,6.85v25.91h11.11v-29.69c0-7.56-3.86-11.34-11.58-11.34Z"/>
        <path d="M350.71,100.57c-2.91,1.89-4.57,2.44-5.75,2.44-1.81,0-2.21-1.26-2.21-5.75v-17.96h9.29v-7.64h-9.29v-12.05h-10.4v12.05l-6.46,1.02v6.62h6.46v25.05c0,5.99,2.6,8.74,8.35,8.74,4.96,0,9.37-2.44,13.55-5.04l-3.54-7.48Z"/>
        <path d="M138.06,104.74c-3.74,0-6.49-1.43-8.38-3.62,17.32-5.63,25.31-11.38,25.31-18.27,0-7.88-6.22-12.36-16.38-12.36s-22.6,6.93-22.6,22.45c0,12.29,8.03,20.16,20.71,20.16,6.38,0,12.68-1.73,18.59-5.04l-4.02-7.88c-3.94,2.44-8.19,4.57-13.23,4.57ZM136.88,78.12c4.49-.08,7.4,1.89,7.4,4.33,0,4.5-5.07,7.86-17.52,12.52-.3-1.36-.44-2.77-.44-4.17,0-9.37,5.59-12.6,10.55-12.68Z"/>
        <path d="M179.09,70.64c-5.67,0-11.58,1.18-16.54,3.39v53.4h10.87v-15.59c1.97.87,4.09,1.26,6.54,1.26,12.92,0,22.37-9.84,22.37-23.15s-11.18-19.3-23.23-19.3ZM179.25,105.53c-2.6,0-4.57-.55-5.83-1.58v-23.63c2.68-1.26,4.49-1.81,6.69-1.81,6.54,0,10.63,4.73,10.63,11.97,0,8.11-5.36,15.04-11.5,15.04Z"/>
        <rect x="258.72" y="71.66" width="11.03" height="40.32"/>
        <path d="M264.15,49.85c-4.09,0-7.32,3.23-7.32,7.4s3.23,7.33,7.32,7.33,7.4-3.23,7.4-7.33-3.23-7.4-7.4-7.4Z"/>
      </g>
    </g>
  </g>
</svg>