<?xml version="1.0" encoding="UTF-8"?>
<svg id="desker_logo" xmlns="http://www.w3.org/2000/svg" viewBox="0 0 117 24">
  <defs>
    <style>
      .cls-1 {
        fill: #000;
        stroke-width: 0px;
      }
    </style>
  </defs>
  <path class="cls-1" d="M110.552,20.283h2.448s-4.827-6.671-4.827-6.671c2.445-.416,4.104-2.244,4.104-4.923,0-3.064-2.169-5.014-5.201-5.014h-6.672v16.607h2.065v-6.58h3.322l4.762,6.58ZM102.469,8.689v-3.175h4.355c1.964,0,3.312,1.305,3.312,3.175s-1.348,3.175-3.312,3.175h-4.355v-3.175Z"/>
  <polygon class="cls-1" points="74.945 3.675 72.352 3.675 65.011 12.26 65.011 3.676 62.946 3.676 62.946 20.283 65.011 20.283 65.011 15.25 66.81 13.154 72.978 20.283 75.548 20.282 68.09 11.663 74.945 3.675"/>
  <polygon class="cls-1" points="25.422 3.676 25.422 5.516 25.422 10.868 25.422 12.708 25.422 18.443 25.422 20.283 27.49 20.283 36.301 20.283 36.301 18.443 27.49 18.443 27.49 12.708 36.126 12.708 36.126 10.868 27.49 10.868 27.49 5.516 36.301 5.516 36.301 3.676 27.49 3.676 25.422 3.676"/>
  <polygon class="cls-1" points="81.433 3.676 81.433 5.516 81.433 10.868 81.433 12.708 81.433 18.443 81.433 20.283 83.502 20.283 92.313 20.283 92.313 18.443 83.502 18.443 83.502 12.708 92.137 12.708 92.137 10.868 83.502 10.868 83.502 5.516 92.313 5.516 92.313 3.676 83.502 3.676 81.433 3.676"/>
  <path class="cls-1" d="M9.671,3.676h-5.671v16.607h5.671c5.157,0,8.516-3.563,8.516-8.294,0-4.704-3.358-8.313-8.516-8.313ZM16.047,11.989c0,3.56-2.338,6.45-6.376,6.45h-3.609V5.516h3.609c4.115,0,6.376,2.888,6.376,6.473h0Z"/>
  <path class="cls-1" d="M45.815,7.905c0-1.567,1.419-2.638,3.411-2.638,1.815,0,3.56.621,4.801,1.989l1.251-1.514c-1.394-1.473-3.362-2.318-5.901-2.318-3.266,0-5.702,1.871-5.702,4.606,0,5.926,9.835,3.561,9.835,7.841,0,1.275-.947,2.866-3.912,2.866-2-.006-3.902-.865-5.227-2.362l-1.22,1.565h0c1.37,1.545,3.487,2.638,6.374,2.638,4.482,0,6.126-2.463,6.126-4.875,0-6.201-9.836-4.059-9.836-7.795Z"/>
</svg>