<svg width="291" height="65" viewBox="0 0 291 65" fill="none" xmlns="http://www.w3.org/2000/svg">
<g clip-path="url(#clip0_79_270)">
<path d="M0 25.9087V0.662647H7.67663L15.1476 13.6855L22.4359 0.662647H30.1582V25.9087H23.6696V10.2356H23.5554L15.2162 24.4465H14.7821L6.55712 10.2356H6.42004V25.9087H0Z" fill="#2C2C2C"/>
<path d="M34.5677 25.9087L43.8664 0.662647H54.2847L63.5606 25.9087H56.6608L54.6503 20.3112H43.3866L41.3761 25.9087H34.5448H34.5677ZM48.3902 6.48866L45.3286 15.0106H52.7996L49.7381 6.48866H48.413H48.3902Z" fill="#2C2C2C"/>
<path d="M67.0791 24.1037V17.7522H67.1248C71.0316 19.8085 75.2812 20.928 78.7768 20.928C81.8154 20.928 83.3691 20.1055 83.3691 18.6433C83.3691 17.181 82.2039 16.7698 76.6292 15.7874C71.5114 14.9192 67.0334 13.4113 67.0334 8.31636C66.9877 3.86118 70.826 0.0457153 78.8225 0.0457153C81.9982 0.0457153 85.5395 0.79967 88.4183 2.21619V8.52199H88.3726C85.4481 6.76276 81.5184 5.64325 78.297 5.64325C75.0756 5.64325 73.7504 6.55714 73.7504 7.88227C73.7504 8.77331 74.3216 9.36733 75.4868 9.61865C76.6749 9.86997 78.297 10.1898 80.3989 10.6011C85.5624 11.4693 90.0632 12.9543 90.0632 18.3691C90.0632 21.9789 87.6415 26.5483 78.5255 26.5483C73.9332 26.5483 70.3691 25.5659 67.0562 24.1266L67.0791 24.1037Z" fill="#2C2C2C"/>
<path d="M94.9983 25.9087V0.662647H101.601V10.0528H113.504V0.662647H120.153V25.9087H113.504V15.8331H101.601V25.9087H94.9983Z" fill="#2C2C2C"/>
<path d="M126.824 16.1073V0.662647H133.473V15.6732C133.473 19.4201 136.26 20.6539 139.322 20.6539C142.383 20.6539 145.193 19.4887 145.193 15.8103V0.662647H151.796V15.9702C151.796 23.8068 146.45 26.617 139.276 26.617C132.102 26.617 126.824 23.8068 126.824 16.1073Z" fill="#2C2C2C"/>
<path d="M158.445 25.9087V0.662647H172.587C178.687 0.662647 181.931 4.20395 181.931 9.93857C181.931 16.4271 177.75 19.4201 172.039 19.4201H165.047V25.9087H158.445ZM165.047 13.8911H171.696C174.255 13.8911 175.374 12.269 175.374 10.0757C175.374 7.63101 174.141 6.26019 171.582 6.26019H165.047V13.914V13.8911Z" fill="#2C2C2C"/>
<path d="M24.5606 64.2689L15.7874 39.0229H22.9385L29.4042 58.1459H30.4552L36.9209 39.0229H43.9807L35.2074 64.2689H24.5606Z" fill="#2C2C2C"/>
<path d="M48.3673 64.2689V39.0229H69.935L70.1863 44.6204H54.9245V48.6643H67.0563V53.9649H54.9245V58.6942H70.6661L70.4605 64.2918H48.3673V64.2689Z" fill="#2C2C2C"/>
<path d="M76.1951 64.2689V39.0229H83.232L94.9983 54.536H95.1353V39.0229H101.487V64.2689H94.7469L82.7065 48.2759H82.5694V64.2689H76.2179H76.1951Z" fill="#2C2C2C"/>
<path d="M115.309 64.2689V44.8489H106.33L106.582 39H130.685L130.891 44.8489H121.912V64.2689H115.309Z" fill="#2C2C2C"/>
<path d="M135.506 54.4447V39H142.155V54.0106C142.155 57.7575 144.942 58.9913 148.003 58.9913C151.065 58.9913 153.875 57.8261 153.875 54.1477V39H160.478V54.3076C160.478 62.1442 155.132 64.9544 147.958 64.9544C140.784 64.9544 135.506 62.1442 135.506 54.4447Z" fill="#2C2C2C"/>
<path d="M167.149 64.2689V39.0229H181.246C187.849 39.0229 191.07 42.1529 191.07 47.8875C191.07 51.9543 189.265 54.7874 185.907 55.9754L192.121 64.2689H184.513L179.487 57.232H173.752V64.2689H167.149ZM173.752 51.8172H180.675C183.417 51.8172 184.422 50.2179 184.422 48.1617C184.422 46.1055 183.417 44.5976 180.675 44.5976H173.752V51.8172Z" fill="#2C2C2C"/>
<path d="M196.645 64.2689V39.0229H218.213L218.464 44.6204H203.202V48.6643H215.334V53.9649H203.202V58.6942H218.944L218.738 64.2918H196.645V64.2689Z" fill="#2C2C2C"/>
<path d="M223.719 62.4639V56.1124H223.765C227.671 58.1687 231.921 59.2882 235.417 59.2882C238.455 59.2882 240.009 58.4657 240.009 57.0035C240.009 55.4956 238.844 55.13 233.269 54.1476C228.151 53.2794 223.673 51.7715 223.673 46.6766C223.673 42.1985 227.489 38.3831 235.508 38.3831C238.684 38.3831 242.225 39.137 245.104 40.5536V46.8594H245.058C242.134 45.1001 238.204 43.9806 234.982 43.9806C231.761 43.9806 230.436 44.8945 230.436 46.2196C230.436 47.1107 231.007 47.7047 232.172 47.956C233.36 48.2073 234.982 48.5272 237.084 48.9384C242.248 49.8066 246.749 51.2917 246.749 56.7065C246.749 60.3163 244.327 64.8857 235.211 64.8857C230.619 64.8857 227.055 63.9033 223.742 62.4639H223.719Z" fill="#2C2C2C"/>
<path d="M290.752 65L281.179 37.4007C280.151 34.4763 277.387 32.4886 274.279 32.4886H267.814L277.547 60.5219C278.483 63.1951 280.996 65 283.83 65H290.752Z" fill="#E25100"/>
<path d="M267.791 32.4886L258.218 4.88927C257.19 1.96484 254.425 -0.0228577 251.318 -0.0228577H244.852L254.585 28.0105C255.522 30.6836 258.035 32.4886 260.868 32.4886H267.791Z" fill="#E25100"/>
</g>
<defs>
<clipPath id="clip0_79_270">
<rect width="290.752" height="65" fill="white"/>
</clipPath>
</defs>
</svg>
